<svg width="527" height="201" viewBox="0 0 527 201" fill="none" xmlns="http://www.w3.org/2000/svg">
<path d="M0 2.82975V5.65876C8.8911 5.65876 12.5284 9.29601 12.5284 13.9436V186.31C12.5284 190.957 8.8911 194.595 0 194.595V197.424H26.4712V194.595H15.3574V24.0472L79.8179 197.222H84.2634V13.7416C84.2634 9.09396 87.9007 5.45668 96.7918 5.45668V2.62769H70.3206V5.45668H81.4344V141.248L29.7044 2.82975H0Z" fill="black"/>
<path d="M197.626 13.9425C197.626 9.29487 201.263 5.65762 210.154 5.65762V2.82861H183.683V5.65762H194.797V155.796C194.797 178.832 181.258 197.423 164.284 197.423C150.341 197.423 142.056 178.832 142.056 155.796V5.65762H153.17V2.82861H108.715V5.65762H119.829V155.796C119.829 180.247 138.419 200.252 164.284 200.252C182.673 200.252 197.626 180.247 197.626 155.796V13.9425Z" fill="black"/>
<path d="M260.469 49.3054L280.272 137.812H241.677L260.469 49.3054ZM213.387 197.423H240.06V194.594H229.552L240.868 140.439H280.676L292.396 194.594H281.282V197.423H326.344V194.594H315.23L272.391 0.000244141H267.946L228.946 184.086C227.532 190.553 222.278 194.594 213.387 194.594V197.423Z" fill="black"/>
<path d="M423.339 103.258H434.453V100.429H389.997V103.258H401.111V155.796C401.111 178.832 392.422 197.423 381.712 197.423C370.801 197.423 362.314 178.832 362.314 155.796V44.6575C362.314 21.6214 370.599 3.03098 384.541 3.03098C400.909 3.03098 415.054 20.8132 415.054 44.6575H417.883V3.03098H415.054C415.054 9.6993 411.821 13.1345 407.78 13.1345C401.717 5.05168 393.231 0.404053 381.712 0.404053C358.676 0.404053 340.086 20.409 340.086 44.8596V155.998C340.086 180.449 358.676 200.454 381.712 200.454C397.878 200.454 403.738 183.278 423.339 183.278V103.258Z" fill="black"/>
<path d="M527.001 2.82861H446.375V5.65762H457.489V194.796H446.375V197.625H527.001V158.625H524.172C524.172 178.63 516.089 194.796 506.188 194.796H479.717V101.439H496.488C502.551 101.439 507.602 111.543 507.602 123.667H510.431V76.3823H507.602C507.602 88.7086 502.551 98.6101 496.488 98.6101H479.717V5.45554H506.188C516.291 5.45554 524.172 21.6212 524.172 41.6262H527.001V2.82861Z" fill="black"/>
</svg>
